# xmcd
#
# Track frame offsets:
#	150
#	15137
#	27630
#	38558
#	50356
#	61466
#	77511
#	86779
#	98326
#	109516
#	122060
#	134988
#	147693
#	158850
#	174858
#	187173
#	201236
#	213815
#	226692
#	235478
#	247479
#	258826
#
# Disc length: 3607 seconds
#
# Revision: 3
# Processed by: cddbd v1.5.1PL2 Copyright (c) Steve Scherf et al.
# Submitted via: EasyCDDAExtractor 9.0.0.1
#
DISCID=300e1516
DTITLE=Brenda Lee - The Brenda Lee Story (Her Greatest Hits)
DYEAR=1973
DGENRE=Vocal
TTITLE0=Johnny One Time
TTITLE1=All Alone Am I
TTITLE2=Sweet Nothin's
TTITLE3=As Usual
TTITLE4=Dum Dum
TTITLE5=You Can Depend On Me
TTITLE6=Coming On Strong
TTITLE7=Losing You
TTITLE8=Fool #1
TTITLE9=Jambalaya ( On The Bayou )
TTITLE10=Emotions
TTITLE11=Just Out Of Reach
TTITLE12=Anybody But Me
TTITLE13=We Three ( My Echo, My Shadow And Me )
TTITLE14=Thanks A Lot
TTITLE15=I Want To Be Wanted
TTITLE16=You Always Hurt The One You Love
TTITLE17=Too Many Rivers
TTITLE18=My Whole World Is Falling Down
TTITLE19=Break It To Me Gently
TTITLE20=That's All You Gotta Do
TTITLE21=I'm Sorry
EXTD=
EXTT0=
EXTT1=
EXTT2=
EXTT3=
EXTT4=
EXTT5=
EXTT6=
EXTT7=
EXTT8=
EXTT9=
EXTT10=
EXTT11=
EXTT12=
EXTT13=
EXTT14=
EXTT15=
EXTT16=
EXTT17=
EXTT18=
EXTT19=
EXTT20=
EXTT21=
PLAYORDER=
